<svg xmlns="http://www.w3.org/2000/svg" viewBox="0 0 600 320" width="600" height="320" role="img" aria-label="Tech stack: HTML5, CSS3, JavaScript, Bootstrap, PHP, CodeIgniter, Python, MySQL, SQLite, Arduino, Git">
  <defs>
    <linearGradient id="chip" x1="0" y1="0" x2="1" y2="1">
      <stop offset="0" stop-color="#1E293B"/>
      <stop offset="1" stop-color="#0F172A"/>
    </linearGradient>
  </defs>

  <g font-family="'Segoe UI', Helvetica, Arial, sans-serif">
    <!-- FRONTEND -->
    <text x="300" y="30" font-size="18" font-weight="700" fill="#38BDF8" text-anchor="middle" opacity="0">Frontend
      <animate attributeName="opacity" from="0" to="1" begin="0.00s" dur="0.6s" fill="freeze"/>
    </text>

    <!-- HTML5 -->
    <g opacity="0">
      <animate attributeName="opacity" from="0" to="1" begin="0.15s" dur="0.6s" fill="freeze"/>
      <g>
        <animateTransform attributeName="transform" type="translate" values="0 0;0 -6;0 0" dur="3s" begin="0.15s" repeatCount="indefinite"/>
        <rect x="14" y="44" width="134" height="48" rx="14" fill="url(#chip)" stroke="#334155" stroke-width="1"/>
        <rect x="14" y="44" width="134" height="24" rx="14" fill="#FFFFFF" opacity="0.05"/>
        <!-- Logo HTML5 Resmi -->
        <g transform="translate(24, 56) scale(0.048)">
          <path fill="#E34F26" d="M71 460L30 0h422l-41 460L240 512"/>
          <path fill="#EF652A" d="M240 472l140-39 35-393H240"/>
          <path fill="#EBEBEB" d="M240 208h-85l-6-67h91V76H81l18 201h141m-141 68l5 56 136 37v67l-203-56-14-159h63"/>
          <path fill="#FFFFFF" d="M240 208v65h80l-8 84-72 19v67l136-37 18-200h-154m0-132v65h153l6-65"/>
        </g>
        <text x="96" y="74" font-size="15" font-weight="600" fill="#F8FAFC" text-anchor="middle">HTML5</text>
      </g>
    </g>

    <!-- CSS3 -->
    <g opacity="0">
      <animate attributeName="opacity" from="0" to="1" begin="0.30s" dur="0.6s" fill="freeze"/>
      <g>
        <animateTransform attributeName="transform" type="translate" values="0 0;0 -6;0 0" dur="3s" begin="0.30s" repeatCount="indefinite"/>
        <rect x="160" y="44" width="134" height="48" rx="14" fill="url(#chip)" stroke="#334155" stroke-width="1"/>
        <rect x="160" y="44" width="134" height="24" rx="14" fill="#FFFFFF" opacity="0.05"/>
        <!-- Logo CSS3 Resmi -->
        <g transform="translate(170, 56) scale(0.048)">
          <path fill="#1572B6" d="M71 460L30 0h422l-41 460L240 512"/>
          <path fill="#33A9DC" d="M240 472l140-39 35-393H240"/>
          <path fill="#EBEBEB" d="M240 208H151l-5-56h94V87H85l19 211h136m0 89l-67-18-4-48h-63l8 104 126 35"/>
          <path fill="#FFFFFF" d="M240 208v65h80l-8 84-72 19v67l136-37 18-200h-154m0-121v65h153l6-65"/>
        </g>
        <text x="242" y="74" font-size="15" font-weight="600" fill="#F8FAFC" text-anchor="middle">CSS3</text>
      </g>
    </g>

    <!-- JavaScript -->
    <g opacity="0">
      <animate attributeName="opacity" from="0" to="1" begin="0.45s" dur="0.6s" fill="freeze"/>
      <g>
        <animateTransform attributeName="transform" type="translate" values="0 0;0 -6;0 0" dur="3s" begin="0.45s" repeatCount="indefinite"/>
        <rect x="306" y="44" width="134" height="48" rx="14" fill="url(#chip)" stroke="#334155" stroke-width="1"/>
        <rect x="306" y="44" width="134" height="24" rx="14" fill="#FFFFFF" opacity="0.05"/>
        <!-- Logo JS Resmi -->
        <g transform="translate(316, 56) scale(0.048)">
          <path fill="#F7DF1E" d="M0 0h512v512H0z"/>
          <path fill="#000000" d="M324.07 411c12.2 21.2 28.5 37.6 58.7 37.6 24.8 0 40.5-12.2 40.5-29.2 0-20.2-16.1-27.8-43.1-39.6l-14.8-6.3c-42.6-18.1-70.8-41-70.8-89.2 0-44.2 34.6-78.2 88.5-78.2 38.8 0 64.1 13.1 82.5 46.2l-36.8 23.6c-9.7-17.3-22.3-25.3-45.5-25.3-17.3 0-28.7 7.2-28.7 18.1 0 13.1 10.1 20.2 33.7 30.4l14.8 6.3c51.4 22.3 80.9 43.8 80.9 94.8 0 53.9-41.7 83-98.6 83-54 0-88.5-24.8-105.8-63.5l38.7-22.7zM170.84 411c10.5 18.5 22.3 34.1 44.2 34.1 21.1 0 34.5-8.4 34.5-41.3V208h50.1v196.4c0 59.8-34.9 85.6-84.3 85.6-45.5 0-73.3-23.6-87.7-56.5l43.2-22.5z"/>
        </g>
        <text x="388" y="74" font-size="15" font-weight="600" fill="#F8FAFC" text-anchor="middle">JavaScript</text>
      </g>
    </g>

    <!-- Bootstrap -->
    <g opacity="0">
      <animate attributeName="opacity" from="0" to="1" begin="0.60s" dur="0.6s" fill="freeze"/>
      <g>
        <animateTransform attributeName="transform" type="translate" values="0 0;0 -6;0 0" dur="3s" begin="0.60s" repeatCount="indefinite"/>
        <rect x="452" y="44" width="134" height="48" rx="14" fill="url(#chip)" stroke="#334155" stroke-width="1"/>
        <rect x="452" y="44" width="134" height="24" rx="14" fill="#FFFFFF" opacity="0.05"/>
        <!-- Logo Bootstrap Resmi -->
        <g transform="translate(460, 56) scale(0.048)">
          <path fill="#7952B3" d="M256 0C114.6 0 0 114.6 0 256s114.6 256 256 256 256-114.6 256-256S397.4 0 256 0z"/>
          <path fill="#FFFFFF" d="M352 160h-128c-17.7 0-32 14.3-32 32v128c0 17.7 14.3 32 32 32h128c17.7 0 32-14.3 32-32V192c0-17.7-14.3-32-32-32zm-60 144h-44v-40h44c11 0 20 9 20 20s-9 20-20 20zm0-64h-44v-40h44c11 0 20 9 20 20s-9 20-20 20z"/>
        </g>
        <text x="532" y="74" font-size="15" font-weight="600" fill="#F8FAFC" text-anchor="middle">Bootstrap</text>
      </g>
    </g>

    <!-- BACKEND -->
    <text x="300" y="130" font-size="18" font-weight="700" fill="#38BDF8" text-anchor="middle" opacity="0">Backend
      <animate attributeName="opacity" from="0" to="1" begin="0.60s" dur="0.6s" fill="freeze"/>
    </text>

    <!-- PHP -->
    <g opacity="0">
      <animate attributeName="opacity" from="0" to="1" begin="0.75s" dur="0.6s" fill="freeze"/>
      <g>
        <animateTransform attributeName="transform" type="translate" values="0 0;0 -6;0 0" dur="3s" begin="0.75s" repeatCount="indefinite"/>
        <rect x="87" y="144" width="134" height="48" rx="14" fill="url(#chip)" stroke="#334155" stroke-width="1"/>
        <rect x="87" y="144" width="134" height="24" rx="14" fill="#FFFFFF" opacity="0.05"/>
        <!-- Logo PHP Resmi -->
        <g transform="translate(97, 158) scale(0.048)">
          <path fill="#777BB4" d="M256 0C114.6 0 0 114.6 0 256s114.6 256 256 256 256-114.6 256-256S397.4 0 256 0zm-82.6 322.2h-31.1l18.4-92.4h31.1c16.1 0 26.6 8 23.6 23-3 15-16.1 69.4-42 69.4zm122.4 0h-31.1l18.4-92.4h31.1c16.1 0 26.6 8 23.6 23-3 15-16.1 69.4-42 69.4z"/>
        </g>
        <text x="162" y="174" font-size="15" font-weight="600" fill="#F8FAFC" text-anchor="middle">PHP</text>
      </g>
    </g>

    <!-- CodeIgniter -->
    <g opacity="0">
      <animate attributeName="opacity" from="0" to="1" begin="0.90s" dur="0.6s" fill="freeze"/>
      <g>
        <animateTransform attributeName="transform" type="translate" values="0 0;0 -6;0 0" dur="3s" begin="0.90s" repeatCount="indefinite"/>
        <rect x="233" y="144" width="134" height="48" rx="14" fill="url(#chip)" stroke="#334155" stroke-width="1"/>
        <rect x="233" y="144" width="134" height="24" rx="14" fill="#FFFFFF" opacity="0.05"/>
        <!-- Logo CodeIgniter Resmi -->
        <g transform="translate(241, 156) scale(0.048)">
          <path fill="#EE4323" d="M243 0C161 68 128 136 128 200c0 98 70 168 160 168 82 0 144-62 144-142 0-112-108-160-189-226zM272 320c-44 0-80-32-80-72 0-38 32-68 76-104 38 32 84 66 84 104 0 40-36 72-80 72z"/>
        </g>
        <text x="310" y="174" font-size="14" font-weight="600" fill="#F8FAFC" text-anchor="middle">CodeIgniter</text>
      </g>
    </g>

    <!-- Python -->
    <g opacity="0">
      <animate attributeName="opacity" from="0" to="1" begin="1.05s" dur="0.6s" fill="freeze"/>
      <g>
        <animateTransform attributeName="transform" type="translate" values="0 0;0 -6;0 0" dur="3s" begin="1.05s" repeatCount="indefinite"/>
        <rect x="379" y="144" width="134" height="48" rx="14" fill="url(#chip)" stroke="#334155" stroke-width="1"/>
        <rect x="379" y="144" width="134" height="24" rx="14" fill="#FFFFFF" opacity="0.05"/>
        <!-- Logo Python Resmi -->
        <g transform="translate(387, 156) scale(0.048)">
          <path fill="#3776AB" d="M245 0c-112 0-105 48-105 48v50h107v15H98S0 102 0 216s86 110 86 110h51v-52s-3-59 58-59h100s56 1 56-55V50S361 0 245 0zm-42 34a17 17 0 1 1 0 34 17 17 0 0 1 0-34z"/>
          <path fill="#FFD43B" d="M267 432c112 0 105-48 105-48v-50H265v-15h149s98 11 98-103-86-110-86-110h-51v52s3 59-58 59H217s-56-1-56 55v110s-10 50 106 50zm42-34a17 17 0 1 1 0-34 17 17 0 0 1 0 34z"/>
        </g>
        <text x="452" y="174" font-size="15" font-weight="600" fill="#F8FAFC" text-anchor="middle">Python</text>
      </g>
    </g>

    <!-- DATABASE & TOOLS -->
    <text x="300" y="230" font-size="18" font-weight="700" fill="#38BDF8" text-anchor="middle" opacity="0">Database &amp; Tools
      <animate attributeName="opacity" from="0" to="1" begin="1.05s" dur="0.6s" fill="freeze"/>
    </text>

    <!-- MySQL -->
    <g opacity="0">
      <animate attributeName="opacity" from="0" to="1" begin="1.20s" dur="0.6s" fill="freeze"/>
      <g>
        <animateTransform attributeName="transform" type="translate" values="0 0;0 -6;0 0" dur="3s" begin="1.20s" repeatCount="indefinite"/>
        <rect x="14" y="244" width="134" height="48" rx="14" fill="url(#chip)" stroke="#334155" stroke-width="1"/>
        <rect x="14" y="244" width="134" height="24" rx="14" fill="#FFFFFF" opacity="0.05"/>
        <!-- Logo MySQL Resmi -->
        <g transform="translate(22, 256) scale(0.048)">
          <path fill="#00758F" d="M228 32c-63 0-112 40-128 80 40-16 80-16 112 0 48 24 80 88 80 144 0 72-48 128-112 144 80 0 160-56 160-144 0-112-96-224-212-224z"/>
          <path fill="#F29111" d="M120 184c-32 0-64 24-64 56 0 40 40 64 80 64 32 0 56-16 72-40-16 8-32 8-48 0-24-12-40-40-40-80zm136 120c16 0 32-8 40-24-16 0-24-8-32-16-8-8-8-16-8-24 0-16 16-32 32-32 16 0 32 16 32 32 0 32-24 64-64 64z"/>
        </g>
        <text x="89" y="274" font-size="15" font-weight="600" fill="#F8FAFC" text-anchor="middle">MySQL</text>
      </g>
    </g>

    <!-- SQLite -->
    <g opacity="0">
      <animate attributeName="opacity" from="0" to="1" begin="1.35s" dur="0.6s" fill="freeze"/>
      <g>
        <animateTransform attributeName="transform" type="translate" values="0 0;0 -6;0 0" dur="3s" begin="1.35s" repeatCount="indefinite"/>
        <rect x="160" y="244" width="134" height="48" rx="14" fill="url(#chip)" stroke="#334155" stroke-width="1"/>
        <rect x="160" y="244" width="134" height="24" rx="14" fill="#FFFFFF" opacity="0.05"/>
        <!-- Logo SQLite Resmi -->
        <g transform="translate(168, 256) scale(0.048)">
          <path fill="#003B5C" d="M0 128l128-96 256 96-128 96z"/>
          <path fill="#41B883" d="M128 32l256 96v192l-256 96L0 320V128z"/>
          <path fill="#003B5C" opacity="0.5" d="M128 32v384l256-96V128z"/>
        </g>
        <text x="235" y="274" font-size="15" font-weight="600" fill="#F8FAFC" text-anchor="middle">SQLite</text>
      </g>
    </g>

    <!-- Arduino -->
    <g opacity="0">
      <animate attributeName="opacity" from="0" to="1" begin="1.50s" dur="0.6s" fill="freeze"/>
      <g>
        <animateTransform attributeName="transform" type="translate" values="0 0;0 -6;0 0" dur="3s" begin="1.50s" repeatCount="indefinite"/>
        <rect x="306" y="244" width="134" height="48" rx="14" fill="url(#chip)" stroke="#334155" stroke-width="1"/>
        <rect x="306" y="244" width="134" height="24" rx="14" fill="#FFFFFF" opacity="0.05"/>
        <!-- Logo Arduino Resmi -->
        <g transform="translate(314, 256) scale(0.048)">
          <path fill="#00979D" d="M140 128c-60 0-108 48-108 108s48 108 108 108c40 0 76-22 96-56 20 34 56 56 96 56 60 0 108-48 108-108s-48-108-108-108c-40 0-76 22-96 56-20-34-56-56-96-56zm-40 92h80v32h-80v-32zm200 0h32v32h-32v32h-32v-32h-32v-32h32v-32h32v32z"/>
        </g>
        <text x="382" y="274" font-size="15" font-weight="600" fill="#F8FAFC" text-anchor="middle">Arduino</text>
      </g>
    </g>

    <!-- Git -->
    <g opacity="0">
      <animate attributeName="opacity" from="0" to="1" begin="1.65s" dur="0.6s" fill="freeze"/>
      <g>
        <animateTransform attributeName="transform" type="translate" values="0 0;0 -6;0 0" dur="3s" begin="1.65s" repeatCount="indefinite"/>
        <rect x="452" y="244" width="134" height="48" rx="14" fill="url(#chip)" stroke="#334155" stroke-width="1"/>
        <rect x="452" y="244" width="134" height="24" rx="14" fill="#FFFFFF" opacity="0.05"/>
        <!-- Logo Git Resmi -->
        <g transform="translate(460, 256) scale(0.048)">
          <path fill="#F05032" d="M439 216L240 17c-12-12-32-12-44 0L17 196c-12 12-12 32 0 44l199 199c12 12 32 12 44 0l179-179c12-12 12-32 0-44z"/>
          <path fill="#FFFFFF" d="M281 214c-10-8-22-12-35-10l-30-30v-40c8-5 14-14 14-25 0-16-13-29-29-29s-29 13-29 29c0 11 6 20 14 25v89c-8 5-14 14-14 25 0 16 13 29 29 29 11 0 20-6 25-14l42-12c8 10 20 16 34 16 23 0 42-19 42-42 0-20-14-37-33-41z"/>
        </g>
        <text x="525" y="274" font-size="15" font-weight="600" fill="#F8FAFC" text-anchor="middle">Git</text>
      </g>
    </g>
  </g>
</svg>
